<svg width="59" height="59" viewBox="0 0 59 59" fill="none" xmlns="http://www.w3.org/2000/svg">
<g clip-path="url(#clip0_205_29598)">
<path d="M10.0569 39.7408C10.4001 38.4599 11.2381 37.3678 12.3865 36.7047C13.5349 36.0417 14.8997 35.862 16.1806 36.2052L42.2606 43.1933" stroke="#F57F3D" stroke-width="4" stroke-linecap="round" stroke-linejoin="round"/>
<path d="M23.9451 7.22744L50.0251 14.2156L39.6723 52.8526L13.5923 45.8645C12.3114 45.5213 11.2194 44.6833 10.5563 43.5348C9.89327 42.3864 9.7136 41.0217 10.0568 39.7408L17.8214 10.763C18.1646 9.48208 19.0026 8.38999 20.151 7.72695C21.2994 7.06391 22.6642 6.88423 23.9451 7.22744V7.22744Z" stroke="#F57F3D" stroke-width="4" stroke-linecap="round" stroke-linejoin="round"/>
</g>
<defs>
<clipPath id="clip0_205_29598">
<rect x="12.4233" y="-0.000976562" width="48" height="48" rx="12" transform="rotate(15 12.4233 -0.000976562)" fill="white"/>
</clipPath>
</defs>
</svg>
