<svg width="262" height="52" viewBox="0 0 262 52" fill="none" xmlns="http://www.w3.org/2000/svg">
<path d="M76.536 37.384C74.7653 37.384 73.1227 37.096 71.608 36.52C70.1147 35.944 68.8133 35.1333 67.704 34.088C66.616 33.0427 65.7627 31.816 65.144 30.408C64.5467 29 64.248 27.464 64.248 25.8C64.248 24.136 64.5467 22.6 65.144 21.192C65.7627 19.784 66.6267 18.5573 67.736 17.512C68.8453 16.4667 70.1467 15.656 71.64 15.08C73.1333 14.504 74.7547 14.216 76.504 14.216C78.2747 14.216 79.896 14.504 81.368 15.08C82.8613 15.656 84.152 16.4667 85.24 17.512C86.3493 18.5573 87.2133 19.784 87.832 21.192C88.4507 22.5787 88.76 24.1147 88.76 25.8C88.76 27.464 88.4507 29.0107 87.832 30.44C87.2133 31.848 86.3493 33.0747 85.24 34.12C84.152 35.144 82.8613 35.944 81.368 36.52C79.896 37.096 78.2853 37.384 76.536 37.384ZM76.504 32.968C77.5067 32.968 78.424 32.7973 79.256 32.456C80.1093 32.1147 80.856 31.624 81.496 30.984C82.136 30.344 82.6267 29.5867 82.968 28.712C83.3307 27.8373 83.512 26.8667 83.512 25.8C83.512 24.7333 83.3307 23.7627 82.968 22.888C82.6267 22.0133 82.136 21.256 81.496 20.616C80.8773 19.976 80.1413 19.4853 79.288 19.144C78.4347 18.8027 77.5067 18.632 76.504 18.632C75.5013 18.632 74.5733 18.8027 73.72 19.144C72.888 19.4853 72.152 19.976 71.512 20.616C70.872 21.256 70.3707 22.0133 70.008 22.888C69.6667 23.7627 69.496 24.7333 69.496 25.8C69.496 26.8453 69.6667 27.816 70.008 28.712C70.3707 29.5867 70.8613 30.344 71.48 30.984C72.12 31.624 72.8667 32.1147 73.72 32.456C74.5733 32.7973 75.5013 32.968 76.504 32.968ZM96.976 37L89.744 19.784H94.896L100.912 34.6H98.352L104.592 19.784H109.392L102.128 37H96.976ZM119.504 37.256C117.542 37.256 115.814 36.872 114.32 36.104C112.848 35.336 111.707 34.2907 110.896 32.968C110.086 31.624 109.68 30.0987 109.68 28.392C109.68 26.664 110.075 25.1387 110.864 23.816C111.675 22.472 112.774 21.4267 114.16 20.68C115.547 19.912 117.115 19.528 118.864 19.528C120.55 19.528 122.064 19.8907 123.408 20.616C124.774 21.32 125.851 22.344 126.64 23.688C127.43 25.0107 127.824 26.6 127.824 28.456C127.824 28.648 127.814 28.872 127.792 29.128C127.771 29.3627 127.75 29.5867 127.728 29.8H113.744V26.888H125.104L123.184 27.752C123.184 26.856 123.003 26.0773 122.64 25.416C122.278 24.7547 121.776 24.2427 121.136 23.88C120.496 23.496 119.75 23.304 118.896 23.304C118.043 23.304 117.286 23.496 116.624 23.88C115.984 24.2427 115.483 24.7653 115.12 25.448C114.758 26.1093 114.576 26.8987 114.576 27.816V28.584C114.576 29.5227 114.779 30.3547 115.184 31.08C115.611 31.784 116.198 32.328 116.944 32.712C117.712 33.0747 118.608 33.256 119.632 33.256C120.55 33.256 121.35 33.1173 122.032 32.84C122.736 32.5627 123.376 32.1467 123.952 31.592L126.608 34.472C125.819 35.368 124.827 36.0613 123.632 36.552C122.438 37.0213 121.062 37.256 119.504 37.256ZM131.148 37V19.784H135.916V24.648L135.244 23.24C135.756 22.024 136.577 21.1067 137.708 20.488C138.838 19.848 140.214 19.528 141.836 19.528V24.136C141.622 24.1147 141.43 24.104 141.26 24.104C141.089 24.0827 140.908 24.072 140.716 24.072C139.35 24.072 138.241 24.4667 137.388 25.256C136.556 26.024 136.14 27.2293 136.14 28.872V37H131.148ZM145.094 37V14.6H154.79C156.795 14.6 158.523 14.9307 159.974 15.592C161.424 16.232 162.544 17.16 163.334 18.376C164.123 19.592 164.518 21.0427 164.518 22.728C164.518 24.392 164.123 25.832 163.334 27.048C162.544 28.264 161.424 29.2027 159.974 29.864C158.523 30.504 156.795 30.824 154.79 30.824H147.974L150.278 28.488V37H145.094ZM150.278 29.064L147.974 26.6H154.502C156.102 26.6 157.296 26.2587 158.086 25.576C158.875 24.8933 159.27 23.944 159.27 22.728C159.27 21.4907 158.875 20.5307 158.086 19.848C157.296 19.1653 156.102 18.824 154.502 18.824H147.974L150.278 16.36V29.064ZM168.179 37V13.256H173.171V37H168.179ZM188.364 37V33.64L188.044 32.904V26.888C188.044 25.8213 187.713 24.9893 187.052 24.392C186.412 23.7947 185.42 23.496 184.076 23.496C183.159 23.496 182.252 23.6453 181.356 23.944C180.481 24.2213 179.735 24.6053 179.116 25.096L177.324 21.608C178.263 20.9467 179.393 20.4347 180.716 20.072C182.039 19.7093 183.383 19.528 184.748 19.528C187.372 19.528 189.409 20.1467 190.86 21.384C192.311 22.6213 193.036 24.552 193.036 27.176V37H188.364ZM183.116 37.256C181.772 37.256 180.62 37.032 179.66 36.584C178.7 36.1147 177.964 35.4853 177.452 34.696C176.94 33.9067 176.684 33.0213 176.684 32.04C176.684 31.016 176.929 30.12 177.42 29.352C177.932 28.584 178.732 27.9867 179.82 27.56C180.908 27.112 182.327 26.888 184.076 26.888H188.652V29.8H184.62C183.447 29.8 182.636 29.992 182.188 30.376C181.761 30.76 181.548 31.24 181.548 31.816C181.548 32.456 181.793 32.968 182.284 33.352C182.796 33.7147 183.489 33.896 184.364 33.896C185.196 33.896 185.943 33.704 186.604 33.32C187.265 32.9147 187.745 32.328 188.044 31.56L188.812 33.864C188.449 34.9733 187.788 35.816 186.828 36.392C185.868 36.968 184.631 37.256 183.116 37.256ZM208.018 19.528C209.383 19.528 210.599 19.8053 211.666 20.36C212.754 20.8933 213.607 21.7253 214.226 22.856C214.845 23.9653 215.154 25.3947 215.154 27.144V37H210.162V27.912C210.162 26.5253 209.853 25.5013 209.234 24.84C208.637 24.1787 207.783 23.848 206.674 23.848C205.885 23.848 205.17 24.0187 204.53 24.36C203.911 24.68 203.421 25.1813 203.058 25.864C202.717 26.5467 202.546 27.4213 202.546 28.488V37H197.554V19.784H202.322V24.552L201.426 23.112C202.045 21.96 202.93 21.0747 204.082 20.456C205.234 19.8373 206.546 19.528 208.018 19.528ZM226.149 37L236.134 14.6H241.254L251.27 37H245.83L237.638 17.224H239.686L231.462 37H226.149ZM231.141 32.2L232.518 28.264H244.038L245.446 32.2H231.141ZM253.594 37V14.6H258.778V37H253.594Z" fill="black"/>
<circle cx="26" cy="26.0001" r="20.7174" fill="white" stroke="black" stroke-width="3"/>
<circle cx="26" cy="26.0001" r="14.6957" fill="white" stroke="black" stroke-width="4"/>
<rect y="24.8696" width="52" height="2.26087" rx="1.13043" fill="black"/>
<rect x="24.8696" width="2.26087" height="52" rx="1.13043" fill="black"/>
<circle cx="26" cy="26" r="6.41304" fill="white" stroke="black" stroke-width="3"/>
<circle cx="26" cy="26.0001" r="1.38043" fill="black" stroke="black" stroke-width="0.5"/>
<rect x="24.622" y="25.8765" width="27.2634" height="2.26087" rx="1.13043" transform="rotate(-44 24.622 25.8765)" fill="black"/>
<path d="M47.536 0.480003C47.5979 0.415916 47.7063 0.458646 47.7079 0.547723L47.7809 4.7274C47.7818 4.78262 47.8274 4.82661 47.8826 4.82564L52.0623 4.75269C52.1513 4.75113 52.1978 4.85805 52.136 4.92214L47.8903 9.31864C47.8719 9.33772 47.8466 9.3487 47.8201 9.34916L43.4405 9.42561C43.3852 9.42657 43.3397 9.38259 43.3387 9.32737L43.2623 4.94772C43.2618 4.9212 43.2719 4.89559 43.2903 4.87651L47.536 0.480003Z" fill="black"/>
</svg>
